<?xml version="1.0" ?><!DOCTYPE svg  PUBLIC '-//W3C//DTD SVG 1.1//EN'  'http://www.w3.org/Graphics/SVG/1.1/DTD/svg11.dtd'><svg enable-background="new 0 0 512 512" height="512px" id="Layer_1" version="1.1" viewBox="0 0 512 512" width="512px" xml:space="preserve" xmlns="http://www.w3.org/2000/svg" xmlns:xlink="http://www.w3.org/1999/xlink"><g id="_x31_67_x2C__Bell_x2C__Sign_x2C__Twitter"><g id="XMLID_5032_"><g id="XMLID_6742_"><g><g><g><path d="M256,412c-10.975,0-20.679-5.555-26.445-14h52.89C276.68,406.445,266.977,412,256,412z" fill="#FFF500"/></g><g><path d="M115.034,362c10.328-19.941,14.213-43.537,9.701-65.605c-1.433-7.268-2.845-52.667-2.845-63.293        c0-60.517,40.769-113.765,99.142-129.49C232.403,100.552,244.17,99,256,99c11.829,0,23.598,1.552,34.975,4.612        c58.367,15.723,99.137,68.971,99.137,129.488c0,10.319-1.448,56.189-2.85,63.312c-4.237,20.729,0.24,45.236,10.412,65.588        H115.034z" fill="#FFF500"/></g></g></g><g><g><path d="M256,440c-33.084,0-60-26.916-60-60c0-5.521,4.477-10,10-10s10,4.479,10,10c0,22.057,17.944,40,40,40       c22.057,0,40-17.943,40-40c0-5.521,4.478-10,10-10s10,4.479,10,10C316,413.084,289.084,440,256,440z"/></g><g><path d="M434.97,390c-0.006,0-0.013,0.001-0.02,0H77.05c-4.319,0-8.15-2.771-9.499-6.875c-1.35-4.104,0.087-8.607,3.562-11.172       c20.387-15.041,31.401-44.459,26.19-69.95c-2.273-11.097-3.413-63.086-3.413-68.903c0-73.15,49.288-137.516,119.859-156.526       c27.505-7.397,57.001-7.397,84.499-0.001C368.822,95.584,418.11,159.95,418.11,233.1c0,5.807-1.14,57.744-3.411,68.897       c-5.216,25.508,9.398,58.121,25.555,69.511c2.832,1.766,4.716,4.909,4.716,8.492C444.97,385.521,440.493,390,434.97,390z        M100.771,370h310.912c-13.929-20.369-21.257-49.126-16.579-72.003c1.619-7.946,3.008-55.375,3.008-64.897       c0-64.126-43.203-120.551-105.063-137.214c-24.104-6.482-49.99-6.484-74.101,0.001       C157.093,112.549,113.89,168.974,113.89,233.1c0,9.536,1.387,56.989,3.006,64.893C121.972,322.816,115.5,349.73,100.771,370z"/></g></g></g></g></g><g id="Layer_1_1_"/></svg>